<?xml version="1.0" encoding="UTF-8"?>
<!-- Generated by Pixelmator Pro 3.7 -->
<svg width="1024" height="1024" viewBox="0 0 1024 1024" xmlns="http://www.w3.org/2000/svg">
    <linearGradient id="linearGradient1" x1="212.60306" y1="523.452558" x2="811.400969" y2="483.421832" gradientUnits="userSpaceOnUse">
        <stop offset="0" stop-color="#41a1ff" stop-opacity="1"/>
        <stop offset="1" stop-color="#736dff" stop-opacity="1"/>
    </linearGradient>
    <path id="Shape" fill="url(#linearGradient1)" fill-rule="evenodd" stroke="none" d="M 462.005157 579.109619 C 434.488647 556.759888 416.149994 541.618408 403.5 531.042664 C 390.850006 520.466919 377.575012 509.589905 374 506.871643 C 370.424988 504.15332 364.337555 500.386902 360.472382 498.501831 C 356.607178 496.616699 350.307159 494.325317 346.472382 493.409851 C 342.53656 492.470276 335.531952 491.757813 330.388794 491.773987 C 324.233643 491.793274 318.729523 492.501587 313.42392 493.957153 C 309.10437 495.142212 303.003418 497.479858 299.866241 499.151978 C 296.729034 500.824097 291.549133 504.297363 288.355347 506.8703 C 285.16156 509.443298 280.46994 514.128479 277.929535 517.28186 C 275.38913 520.435181 271.859314 525.99176 270.08551 529.6297 C 268.311707 533.2677 266.10434 539.226685 265.180206 542.87207 C 264.016876 547.46106 263.5 553.652893 263.5 563 C 263.5 572.559448 264.029755 578.736938 265.314941 584.163696 C 266.313171 588.378784 268.656158 595.012268 270.521606 598.904785 C 272.387054 602.797302 275.676483 608.578491 277.831451 611.751831 C 279.98642 614.925171 284.922852 620.515015 288.801239 624.173706 C 292.679657 627.832397 298.990723 632.658447 302.825867 634.898315 C 306.66098 637.138123 313.781586 640.304749 318.649414 641.935181 C 323.517242 643.565674 331.722473 645.412781 336.88327 646.039917 C 343.901581 646.8927 348.733185 646.893311 356.053314 646.042358 C 361.436035 645.416565 368.879913 644.035278 372.595215 642.972778 C 376.310516 641.910278 382.442047 639.859558 386.220795 638.415649 C 389.999573 636.97168 397.233246 633.678162 402.295654 631.09668 C 407.358032 628.515259 415.970612 623.589661 421.434692 620.15094 C 426.898804 616.712219 435.673798 610.919861 440.934692 607.278992 C 446.195618 603.638184 458.375 594.735229 468 587.494751 C 477.625 580.254333 494.5 567.379028 505.5 558.883057 C 516.5 550.387146 537.650024 533.556519 552.5 521.481628 C 567.349976 509.406799 587.599976 492.597168 597.5 484.126953 C 607.400024 475.656677 618.424988 466.536987 622 463.860901 C 625.575012 461.184875 632.82489 456.758789 638.110901 454.025208 C 643.396912 451.291626 651.730591 447.712036 656.630249 446.070496 C 661.529907 444.428955 669.820007 442.327271 675.052734 441.400085 C 682.388245 440.100342 687.993896 439.838318 699.533386 440.255676 C 711.290894 440.680969 716.625427 441.363159 724.412598 443.4375 C 729.864502 444.889771 738.411804 447.972961 743.406555 450.289001 C 748.401306 452.605042 755.756531 456.630615 759.751526 459.234741 C 763.746521 461.838867 770.747131 467.552368 775.308411 471.931335 C 779.869629 476.310364 786.161621 483.44873 789.290588 487.794495 C 792.419556 492.140198 797.023865 499.701721 799.522461 504.5979 C 802.021057 509.49408 805.354675 517.549988 806.930542 522.5 C 808.506348 527.450012 810.516663 535.741821 811.397827 540.926208 C 812.286072 546.1521 813 555.988281 813 563 C 813 570.011719 812.286072 579.8479 811.397827 585.073792 C 810.516663 590.258179 808.438477 598.775024 806.779663 604 C 805.120911 609.224976 801.755066 617.549988 799.30011 622.5 C 796.845154 627.450012 792.285828 635.325012 789.168274 640 C 786.05072 644.674988 779.224976 652.789185 774 658.031494 C 768.644714 663.404541 760.37854 670.31427 755.053284 673.869202 C 749.857605 677.337646 742.207581 681.880249 738.053284 683.963806 C 733.898987 686.047363 726.277832 689.151855 721.117432 690.862671 C 715.957031 692.573486 708.191589 694.645386 703.860962 695.466919 C 699.530334 696.288391 691.827515 697.249634 686.74353 697.602905 C 681.515686 697.966248 672.738831 697.729492 666.540466 697.057922 C 660.512695 696.404846 649.673828 694.356567 642.454041 692.506165 C 635.234314 690.655762 624.866089 687.371704 619.413635 685.208191 C 613.961121 683.044678 603.985962 678.508545 597.246582 675.127808 C 590.507202 671.747192 580.157166 666.092896 574.246582 662.562866 C 568.335938 659.032715 557.642456 652.1745 550.483215 647.322266 C 543.323975 642.469971 533.31897 635.575012 528.249817 632 C 523.180725 628.424988 519.039307 625.275024 519.046814 625 C 519.05426 624.724976 526.204468 618.933228 534.936218 612.129395 C 543.667908 605.325623 553.073303 597.97644 555.837097 595.797852 C 560.862183 591.836853 560.862183 591.836853 574.681091 601.314697 C 582.281494 606.527466 593.674988 614.076904 600 618.091248 C 606.325012 622.105591 616.900024 628.143372 623.5 631.508545 C 630.099976 634.873779 640 639.085022 645.5 640.866943 C 651 642.648804 660 644.795166 665.5 645.636658 C 672.05603 646.639709 678.156799 646.943115 683.214417 646.5177 C 687.457275 646.160767 694.432312 645.031006 698.714417 644.00708 C 702.99646 642.983215 709.528564 640.785522 713.230225 639.123413 C 716.931824 637.461304 722.556824 634.33252 725.730225 632.170532 C 728.903564 630.008484 733.575684 626.273193 736.112671 623.869751 C 738.649597 621.466431 742.699585 616.785767 745.112671 613.468445 C 747.525696 610.151062 751.170532 603.851074 753.212341 599.468445 C 755.254089 595.085815 757.664185 588.799988 758.568115 585.5 C 759.471985 582.200012 760.450989 574.325012 760.743652 568 C 761.046875 561.446655 760.786987 553.348938 760.139404 549.174377 C 759.514404 545.145264 757.812683 538.845337 756.357788 535.174377 C 754.902893 531.503479 751.827393 525.575012 749.523315 522 C 747.219299 518.424988 742.309998 512.68042 738.61377 509.234375 C 734.518066 505.415833 728.785095 501.405884 723.934753 498.967224 C 719.557556 496.766357 712.944031 494.254333 709.238098 493.384888 C 705.532104 492.515442 698.450012 491.82782 693.5 491.85675 C 687.880676 491.889648 681.569946 492.667175 676.699524 493.926697 C 672.409241 495.036194 665.763489 497.591675 661.931152 499.60553 C 658.098816 501.619324 648.784058 508.237 641.231628 514.311462 C 633.67926 520.385864 613.784546 536.863281 597.021179 550.927979 C 580.257874 564.992554 557.532898 583.896973 546.521179 592.937744 C 535.509521 601.978394 518.849976 615.056946 509.5 622.001038 C 500.149994 628.94519 485.975006 639.163208 478 644.707825 C 470.024994 650.252441 457.48291 658.47113 450.128693 662.971558 C 442.774475 667.472046 431.819183 673.628418 425.78363 676.652588 C 419.748047 679.676636 410.852173 683.679443 406.015015 685.547485 C 401.177856 687.415649 392.342041 690.313843 386.379883 691.987976 C 380.417694 693.662109 370.445099 695.699707 364.218567 696.515991 C 357.992004 697.332153 349.658112 697.940857 345.698792 697.86853 C 341.739441 697.796265 335.575012 697.385254 332 696.955078 C 328.424988 696.524902 322.340332 695.5047 318.478516 694.687927 C 314.616699 693.871155 307.866699 691.999329 303.478516 690.52832 C 299.090332 689.057251 291.899994 686.156494 287.5 684.082092 C 283.100006 682.00769 275.361053 677.527588 270.302307 674.126343 C 265.243591 670.725098 257.463898 664.517334 253.014099 660.331299 C 248.564301 656.145264 242.001297 648.845703 238.429657 644.110168 C 234.858017 639.374573 229.034546 629.650024 225.488602 622.5 C 221.942673 615.349976 217.89299 605.463379 216.489334 600.529785 C 215.085678 595.596191 213.278152 587.496216 212.472641 582.529785 C 211.667114 577.563416 211.006226 568.291809 211.004028 561.926208 C 211.001816 555.560669 211.726898 546.110596 212.615326 540.926208 C 213.503754 535.741821 215.500198 527.609314 217.051865 522.854004 C 218.603531 518.098755 221.761429 510.452332 224.069397 505.861938 C 226.37738 501.271606 230.524704 494.137329 233.285675 490.007935 C 236.046646 485.878601 242.174347 478.651306 246.902802 473.947327 C 251.631271 469.243347 258.875 463.118652 263 460.336853 C 267.125 457.554993 273.200012 453.917664 276.5 452.253784 C 279.799988 450.589905 286.495483 447.819336 291.378815 446.096924 C 296.262177 444.374512 304.083618 442.298096 308.759827 441.482666 C 313.436005 440.667175 322.644836 440 329.223907 440 C 337.305908 440 344.416229 440.658325 351.145203 442.029602 C 356.622864 443.145874 364.625336 445.344116 368.928467 446.914551 C 373.231598 448.484985 380.444336 451.690674 384.956787 454.03833 C 389.469208 456.385925 395.984131 460.375244 399.434387 462.903381 C 402.884644 465.431519 414.736572 475.521301 425.772034 485.325073 C 436.807465 495.128906 453.18576 509.022644 462.168243 516.200012 C 471.150696 523.377441 483.808167 533.35614 490.295929 538.374878 C 502.091827 547.5 502.091827 547.5 499.295929 550.006104 C 497.758148 551.384399 488.738647 558.496582 479.252563 565.810913 L 462.005157 579.109619 Z M 565.099854 502.121887 C 549.660156 470.185913 537.829102 445.652039 528.847595 426.998291 C 519.866089 408.344604 512.235718 393.401367 511.891296 393.791199 C 511.546844 394.18103 507.136383 403.378723 502.090271 414.230469 C 497.044189 425.082153 489.508209 441.282166 485.343689 450.230469 C 481.179169 459.178711 474.197845 474.137817 469.829681 483.4729 C 465.461517 492.807983 461.713501 500.619812 461.500763 500.832581 C 461.288025 501.045288 454.142151 495.086426 445.621063 487.590576 C 434.426208 477.742676 428.900421 472.094482 425.702606 467.230896 C 423.268524 463.52887 412.156403 442.781555 401.008972 421.125671 C 389.861542 399.469788 373.107697 365.985962 363.778229 346.717102 C 354.448761 327.448303 346.583893 311.079224 346.300781 310.341431 C 345.879181 309.242737 350.012543 309.003967 369.143005 309.021973 C 389.741638 309.041321 392.972382 309.262634 396.5 310.895874 C 398.700012 311.914429 401.732086 314.061035 403.237946 315.666016 C 404.743835 317.271057 411.867157 331.165344 419.067596 346.542114 C 426.268005 361.918945 436.472809 383.387512 441.744934 394.25 C 447.017029 405.112488 451.593689 413.995544 451.915283 413.990112 C 452.236877 413.98468 454.871887 408.92218 457.770874 402.740112 C 460.669861 396.558044 470.711548 375.075012 480.085754 355 C 489.459961 334.924988 498.338074 317.207092 499.81488 315.626831 C 501.291687 314.046631 503.948059 312.134094 505.717896 311.376831 C 507.487701 310.619568 510.768158 310 513.00769 310 C 515.247314 310 518.861267 310.908875 521.038696 312.019775 C 523.216187 313.130615 526.085571 315.71814 527.4151 317.769775 C 528.744629 319.821411 533.401184 329.150024 537.763062 338.5 C 542.124878 347.849976 549.015625 362.474976 553.075867 371 C 557.136047 379.525024 563.674744 393.025024 567.606323 401 L 574.754578 415.5 L 579.931335 404.5 C 582.778564 398.450012 588.948547 385.174988 593.642334 375 C 598.336121 364.825012 605.849304 348.400024 610.338257 338.5 C 616.875061 324.083679 619.401428 319.589111 623.02771 315.924683 C 626.250122 312.668396 628.900269 311.010742 632.22052 310.174683 C 635.044861 309.463501 645.039246 309 657.549805 309 C 673.672791 309 678.107544 309.274719 677.729675 310.25 C 677.463318 310.9375 669.829773 326.799988 660.766235 345.5 C 651.702637 364.200012 634.2901 399.718994 622.071594 424.431152 C 599.85614 469.362244 599.85614 469.362244 590.645874 478.431152 C 585.5802 483.419006 577.760071 490.789917 573.267761 494.810913 L 565.099854 502.121887 Z"/>
</svg>
